<svg xmlns="http://www.w3.org/2000/svg" viewBox="0 0 396 52" xmlns:v="https://vecta.io/nano"><path d="M.5 41.5h5.8V27.8h11.9V23H6.3v-9.2h14v-5H.5v32.7zM27.2 6.1c-1 0-1.9.3-2.5.9-.7.6-1 1.4-1 2.4s.3 1.8 1 2.3c.7.6 1.5.9 2.5.9s1.9-.3 2.6-.9 1-1.4 1-2.3c0-1-.3-1.8-1-2.4s-1.5-.9-2.6-.9zm-2.9 35.4h5.8V17h-5.8v24.5zm25.5-25.2c-1.7 0-3.2.4-4.5 1.2s-2.5 1.7-3.6 2.8h-.2l-.4-3.3h-4.8v24.5h5.8V24.3c1-1 2-1.8 2.8-2.3s1.8-.8 2.8-.8c1.4 0 2.3.4 3 1.2.6.8.9 2.3.9 4.3v14.7h5.8V26.1c0-3.1-.6-5.5-1.8-7.2-1.3-1.7-3.2-2.6-5.8-2.6zm29-1.2l.2 4c-1-.8-1.9-1.5-2.9-2s-2.1-.7-3.5-.7c-1.3 0-2.6.3-3.9.9s-2.4 1.5-3.3 2.5c-1 1.1-1.7 2.5-2.3 4-.6 1.6-.9 3.4-.9 5.4 0 4.1.9 7.2 2.7 9.5 1.8 2.2 4.3 3.4 7.4 3.4a8.49 8.49 0 0 0 3.8-.9c1.2-.6 2.2-1.4 3.2-2.3h.2l.4 2.7h4.8V6.2h-5.8v8.9zm0 19.5c-1.6 1.8-3.3 2.8-5.2 2.8-1.8 0-3.2-.7-4.1-2.1s-1.4-3.4-1.4-6.1c0-2.6.5-4.6 1.7-6 1.1-1.4 2.5-2.1 4-2.1.8 0 1.7.2 2.5.5a7.02 7.02 0 0 1 2.5 1.6v11.4zm32.6-18.3c-2 0-3.8.3-5.5 1-1.7.6-3.2 1.4-4.6 2.2l2.1 3.9c1.1-.7 2.2-1.2 3.4-1.7a8.75 8.75 0 0 1 3.5-.7c.8 0 1.5.1 2.1.4.6.2 1 .6 1.4 1 .4.5.6 1 .8 1.5.2.6.2 1.2.3 1.8-2.5.3-4.7.7-6.5 1.2s-3.3 1.1-4.5 1.8-2 1.6-2.6 2.6c-.5 1-.8 2.2-.8 3.5 0 2.2.7 3.9 2 5.2s3.1 2 5.2 2c1.5 0 2.8-.3 4.1-.9 1.2-.6 2.4-1.4 3.5-2.4h.2l.4 2.7h4.8V27c0-3.4-.8-6.1-2.3-7.9-1.6-1.8-3.9-2.8-7-2.8zm3.4 18.6c-.9.9-1.8 1.5-2.6 2s-1.7.7-2.7.7-1.9-.2-2.6-.8c-.7-.5-1-1.3-1-2.4 0-.6.2-1.2.5-1.7s.8-1 1.5-1.4 1.6-.8 2.8-1.1c1.1-.3 2.5-.6 4.2-.8v5.5zm22.9 7.9c0 1.4-.2 2.5-.6 3.3s-1.1 1.1-2.2 1.1c-.4 0-.7 0-1.1-.1l-1-.3-1.1 4.3c.5.2 1 .3 1.7.4.6.1 1.4.2 2.3.2 1.4 0 2.6-.2 3.6-.7s1.8-1.1 2.4-1.9 1.1-1.8 1.3-2.9c.3-1.1.4-2.3.4-3.6V17h-5.8v25.8zm30.4-23c-1.1-1.1-2.3-1.9-3.7-2.5s-2.9-.9-4.4-.9-3 .3-4.4.9-2.6 1.4-3.7 2.5-1.9 2.5-2.6 4a15.41 15.41 0 0 0-1 5.5c0 2 .3 3.8 1 5.5.6 1.6 1.5 3 2.6 4 1.1 1.1 2.3 1.9 3.7 2.5s2.9.8 4.4.8 3-.3 4.4-.8c1.4-.6 2.7-1.4 3.7-2.5 1.1-1.1 1.9-2.5 2.6-4 .7-1.6 1-3.4 1-5.5 0-2-.3-3.8-1-5.5-.7-1.6-1.6-3-2.6-4zm-3.9 15.4c-1 1.5-2.5 2.2-4.2 2.2s-3.2-.7-4.2-2.2-1.5-3.5-1.5-5.9c0-2.5.5-4.5 1.5-6s2.4-2.2 4.2-2.2 3.2.7 4.2 2.2 1.5 3.5 1.5 6c0 2.4-.5 4.4-1.5 5.9zm31.7-15.5c-.8-1.1-1.8-1.9-3-2.5s-2.6-.9-4.1-.9c-1.3 0-2.5.3-3.7.9s-2.3 1.3-3.4 2.2l.2-4.1V6.2H176v35.3h4.5l.5-2.6h.2c1 1 2.1 1.8 3.3 2.4 1.2.5 2.3.8 3.4.8 1.4 0 2.7-.3 4-.9s2.4-1.5 3.4-2.6 1.7-2.5 2.3-4.2c.6-1.6.9-3.5.9-5.6 0-1.9-.2-3.6-.6-5.1-.6-1.6-1.2-2.9-2-4zm-5.1 15.5c-1.1 1.4-2.5 2.1-4.1 2.1-.7 0-1.5-.1-2.4-.4s-1.7-.8-2.6-1.6V23.8c1.9-1.8 3.7-2.8 5.4-2.8 1.9 0 3.2.7 4.1 2.1.8 1.4 1.2 3.3 1.2 5.8.1 2.8-.5 4.9-1.6 6.3zm34.5-6.2l-.9 3.4-.9 3.5h-.2l-1.1-3.5-1.1-3.4-4.2-12H211l9.6 24.2-.5 1.5c-.4 1.2-1 2.2-1.8 3s-1.8 1.2-3.1 1.2c-.3 0-.6 0-.9-.1s-.6-.2-.8-.2l-1 4.5c.5.2.9.3 1.4.4s1.1.1 1.8.1c1.3 0 2.5-.2 3.5-.6s1.9-1 2.7-1.8 1.5-1.7 2.1-2.8 1.1-2.3 1.6-3.8l8.9-25.6H229l-3.7 12zm30.6-9.2c-1.1-1.1-2.3-1.9-3.7-2.5s-2.9-.9-4.4-.9-3 .3-4.4.9-2.6 1.4-3.7 2.5-1.9 2.5-2.6 4a15.41 15.41 0 0 0-1 5.5c0 2 .3 3.8 1 5.5.6 1.6 1.5 3 2.6 4 1.1 1.1 2.3 1.9 3.7 2.5s2.9.8 4.4.8 3-.3 4.4-.8c1.4-.6 2.7-1.4 3.7-2.5 1.1-1.1 1.9-2.5 2.6-4a15.41 15.41 0 0 0 1-5.5c0-2-.3-3.8-1-5.5-.7-1.6-1.6-3-2.6-4zM252 35.2c-1 1.5-2.4 2.2-4.2 2.2s-3.2-.7-4.2-2.2-1.5-3.5-1.5-5.9c0-2.5.5-4.5 1.5-6s2.4-2.2 4.2-2.2 3.2.7 4.2 2.2 1.6 3.5 1.6 6c-.1 2.4-.6 4.4-1.6 5.9zM278.6 17v16.8c-.9 1.2-1.8 2.1-2.6 2.6s-1.8.8-2.8.8c-1.3 0-2.3-.4-2.9-1.2s-.9-2.3-.9-4.3V17h-5.8v15.4c0 3.1.6 5.5 1.8 7.2s3.1 2.5 5.8 2.5c1.7 0 3.2-.4 4.4-1.1s2.4-1.8 3.5-3h.2l.5 3.6h4.7V17h-5.9z" fill="#fff"/><path d="M310.5 41.6l-.8-4.3c-.2.1-.4.1-.5.1h-.4c-.3 0-.6-.1-.9-.4s-.4-.8-.4-1.5V6.2h-5.8v29c0 2.1.4 3.8 1.2 5.1.8 1.2 2.3 1.8 4.4 1.8 1.5 0 2.5-.2 3.2-.5h0zm18.9-.3c1.4-.6 2.7-1.4 3.7-2.5 1.1-1.1 1.9-2.5 2.6-4.1s1-3.4 1-5.4-.3-3.9-1-5.4c-.6-1.6-1.5-3-2.6-4.1s-2.3-1.9-3.7-2.5-2.9-.9-4.4-.9-3 .3-4.4.9-2.6 1.4-3.7 2.5-1.9 2.5-2.6 4.1c-.6 1.6-1 3.4-1 5.4s.3 3.9 1 5.4c.6 1.6 1.5 3 2.6 4.1s2.3 1.9 3.7 2.5 2.9.8 4.4.8 3-.3 4.4-.8zm-8.7-6.1c-1-1.5-1.5-3.5-1.5-5.9 0-2.5.5-4.5 1.5-6s2.4-2.2 4.2-2.2 3.2.7 4.2 2.2 1.5 3.5 1.5 6-.5 4.4-1.5 5.9-2.5 2.2-4.2 2.2-3.1-.7-4.2-2.2zm32 6.3L361 17h-5.5l-3.9 12.8c-.4 1.2-.7 2.4-1 3.6l-1 3.8h-.2l-1-3.8c-.4-1.2-.7-2.5-1-3.6L343.3 17h-5.8l8.5 24.6h6.7zm26.4-.1c1.4-.5 2.7-1.1 3.9-1.9l-2-3.6c-.9.6-1.8 1-2.7 1.3s-1.9.5-3 .5c-2 0-3.6-.6-4.9-1.8s-2.1-2.9-2.3-5.1h15.6c.1-.3.1-.7.2-1.2s.1-1 .1-1.6c0-1.7-.2-3.3-.7-4.7a10.8 10.8 0 0 0-1.9-3.7c-.9-1-1.9-1.8-3.2-2.4s-2.7-.9-4.4-.9c-1.4 0-2.8.3-4.2.9s-2.6 1.5-3.6 2.6c-1.1 1.1-1.9 2.4-2.5 4s-1 3.4-1 5.4.3 3.8.9 5.4 1.5 2.9 2.6 4 2.4 1.9 3.9 2.5 3 .9 4.8.9c1.5.1 3-.1 4.4-.6zm-9-19c1.1-1 2.4-1.5 3.9-1.5 1.7 0 3 .5 3.8 1.6s1.2 2.6 1.2 4.5h-10.9c.3-2.1.9-3.6 2-4.6zM394.2 41c.7-.7 1-1.7 1-2.8s-.4-2.1-1-2.8c-.7-.7-1.6-1.1-2.6-1.1a3.69 3.69 0 0 0-2.7 1.1c-.7.7-1.1 1.7-1.1 2.8s.4 2.1 1.1 2.8a3.69 3.69 0 0 0 2.7 1.1c1 0 1.9-.4 2.6-1.1zM140.5 14l-1-1.1c-3.6-3.5-6-5.9-6-8.8 0-2.4 1.7-4.2 3.8-4.2 1.2 0 2.4.6 3.2 1.6.8-1 2-1.6 3.1-1.6 2.2 0 3.9 1.8 3.9 4.2 0 2.9-2.4 5.2-6 8.8l-1 1.1z" fill="#f44336"/></svg>