<?xml version="1.0" encoding="utf-8"?>
<!-- Generator: Adobe Illustrator 17.0.0, SVG Export Plug-In . SVG Version: 6.00 Build 0)  -->
<!DOCTYPE svg PUBLIC "-//W3C//DTD SVG 1.1//EN" "http://www.w3.org/Graphics/SVG/1.1/DTD/svg11.dtd">
<svg version="1.1" id="Layer_1" xmlns="http://www.w3.org/2000/svg" xmlns:xlink="http://www.w3.org/1999/xlink" x="0px" y="0px"
	 width="148.499px" height="50.4px" viewBox="0 -9.2 148.499 50.4" enable-background="new 0 -9.2 148.499 50.4"
	 xml:space="preserve">
<path fill="#212F62" d="M69.88,9.531c-1.829-1.937-4.329-2.961-7.228-2.961c-3.181,0-5.857,1.187-7.739,3.434
	c-1.728,2.064-2.679,4.949-2.679,8.124c0,6.392,4.418,11.032,10.506,11.032c4.299,0,7.81-2.13,9.886-6.005l0.194-0.358l-3.711-2.119
	l-0.208,0.394c-1.503,2.714-3.433,4.075-5.899,4.075c-3.484,0-6.078-2.597-6.311-5.958h16.137l0.023-0.477
	C73.056,15.142,71.973,11.745,69.88,9.531 M56.428,15.83c0.439-2.801,3.244-5.392,6.269-5.392c3.069,0,5.568,2.591,6.05,5.392
	H56.428z"/>
<polygon fill="#212F62" points="53.723,7.426 34.64,7.426 34.64,11.908 45.176,11.908 31.049,28.154 53.128,28.154 53.128,24.233 
	39.637,24.233 "/>
<path fill="#212F62" d="M31.177,9.885c-2.114-2.138-4.949-3.315-7.984-3.315s-5.87,1.177-7.984,3.315
	c-2.107,2.131-3.268,4.981-3.268,8.024c0,3.035,1.167,5.87,3.287,7.983c2.114,2.108,4.943,3.269,7.965,3.269
	c3.023,0,5.851-1.161,7.966-3.269c2.119-2.113,3.287-4.948,3.287-7.983C34.445,14.865,33.284,12.016,31.177,9.885 M23.192,25.07
	c-3.932,0-6.897-3.097-6.897-7.205s2.965-7.204,6.897-7.204c3.933,0,6.898,3.097,6.898,7.204S27.125,25.07,23.192,25.07"/>
<path fill="#212F62" d="M91.182,21.01c-0.308,0.601-0.723,1.149-1.252,1.644c-1.22,1.137-2.69,1.739-4.251,1.739
	c-1.63,0-3.207-0.653-4.481-1.847l11.798-11.009l-0.255-0.308c-2.457-2.955-5.729-4.649-8.978-4.649
	c-2.436,0-4.756,0.964-6.71,2.785c-2.326,2.171-3.473,4.865-3.316,7.791c0.145,2.688,1.417,5.447,3.584,7.768
	c1.508,1.616,3.286,2.749,5.182,3.335C90.329,26.083,91.105,21.877,91.182,21.01 M79.875,12.327c1.008-0.94,2.349-1.458,3.779-1.458
	c1.189,0,2.367,0.355,3.367,1.007l-8.252,7.7C77.486,17.289,77.936,14.135,79.875,12.327"/>
<polyline fill="#212F62" points="84.94,28.704 84.937,28.704 84.94,28.704 "/>
<path fill="#47B449" d="M91.221,20.911c-0.56,0.088-1.444,0.039-1.997-0.099c1.2-0.674,2.588-1.538,3.682-2.594
	c0.77-0.743,1.493-1.58,2.142-2.524c-0.065,1.546,0.367,3.197,0.734,4.543c0.278,1.016,0.635,1.98,1.029,2.891
	c-0.538-0.227-1.109-0.536-1.62-0.943c-4.536,9.016-12.698,6.082-12.698,6.082c8.204-2.272,8.727-6.772,8.727-7.353L91.221,20.911
	L91.221,20.911z"/>
<path fill="#212F62" d="M12.59,11.425l2.683-3.634C8.368,5.559,5.51,9.259,5.51,9.259V7.426H1.028v20.727H5.51V15.957
	c0,0-0.063-2.616,2.106-4.083c2.375-1.606,4.966-0.504,4.966-0.504"/>
<path fill="#212F62" d="M101.094,27.245c0,1.051-0.822,1.873-1.873,1.873c-1.051,0-1.873-0.822-1.873-1.873s0.822-1.873,1.873-1.873
	C100.272,25.372,101.094,26.194,101.094,27.245"/>
<path fill="#212F62" d="M106.636,11.346h0.092c1.553-2.696,4.934-4.249,8.041-4.249c6.442,0,10.417,5.026,10.417,11.193
	c0,6.168-3.975,10.828-10.326,10.828c-3.244,0-6.396-1.416-8.133-4.112h-0.092v15.991h-2.056V7.553h2.056L106.636,11.346
	L106.636,11.346z M106.5,18.564c0,4.935,3.335,8.635,8.408,8.635c4.934,0,8.223-4.158,8.223-8.864c0-4.843-3.152-9.321-8.315-9.321
	C109.425,9.015,106.5,13.493,106.5,18.564"/>
<polygon fill="#212F62" points="130.135,16.508 138.816,7.554 141.466,7.554 132.602,16.691 144.436,28.662 141.74,28.662 
	131.277,18.107 130.135,19.295 130.135,28.662 128.079,28.662 128.079,-9.032 130.135,-9.032 "/>
<polygon fill="#212F62" points="142.819,7.74 142.126,7.74 142.126,7.49 143.81,7.49 143.81,7.74 143.115,7.74 143.115,9.765 
	142.819,9.765 "/>
<path fill="#212F62" d="M145.982,8.766c-0.017-0.317-0.036-0.699-0.034-0.982h-0.011c-0.078,0.267-0.171,0.55-0.286,0.864
	l-0.402,1.103h-0.223l-0.368-1.083c-0.107-0.32-0.198-0.614-0.263-0.884h-0.006c-0.007,0.283-0.024,0.665-0.044,1.006l-0.061,0.975
	h-0.28l0.159-2.274h0.374l0.388,1.1c0.095,0.28,0.173,0.529,0.23,0.766h0.011c0.057-0.23,0.138-0.479,0.239-0.766l0.405-1.1h0.375
	l0.142,2.274h-0.287L145.982,8.766z"/>
</svg>
